<?xml version="1.0" encoding="iso-8859-1"?>
<!-- Generator: Adobe Illustrator 19.0.0, SVG Export Plug-In . SVG Version: 6.00 Build 0)  -->
<svg version="1.1" id="Capa_1" xmlns="http://www.w3.org/2000/svg" xmlns:xlink="http://www.w3.org/1999/xlink" x="0px" y="0px"
	 viewBox="0 0 512 512" style="enable-background:new 0 0 512 512;" xml:space="preserve">
<g>
	<path style="fill:#d12020;" d="M349.863,59.732c9.429,0,17.066-7.637,17.066-17.066V25.6c0-9.429-7.637-17.066-17.066-17.066
		h-187.73c-9.429,0-17.066,7.637-17.066,17.066v17.066c0,9.429,7.637,17.066,17.066,17.066H349.863z"/>
	<rect x="179.191" y="59.732" style="fill:#d12020;" width="153.597" height="187.73"/>
	<polygon style="fill:#d12020;" points="110.934,315.728 221.865,315.728 290.131,315.728 401.062,315.728 332.797,247.463 
		179.199,247.463 	"/>
</g>
<polygon style="fill:#d12020;" points="255.998,503.458 290.131,315.728 221.865,315.728 "/>
<path style="fill:#d12020;" d="M407.095,309.695L341.33,243.93V68.266h8.533c14.139,0,25.6-11.46,25.6-25.6V25.6
	c0-14.139-11.46-25.6-25.6-25.6h-187.73c-14.139,0-25.6,11.46-25.6,25.6v17.066c0,14.139,11.46,25.6,25.6,25.6h8.533V243.93
	l-65.765,65.765c-3.328,3.336-3.328,8.738,0,12.066c1.596,1.604,3.763,2.5,6.033,2.5H214.74l32.861,180.724
	c0.836,4.634,5.282,7.714,9.916,6.878c3.499-0.631,6.246-3.371,6.878-6.878l32.861-180.724h103.806c4.71,0,8.533-3.823,8.533-8.533
	C409.587,313.467,408.691,311.291,407.095,309.695z M153.6,42.666V25.6c0-4.71,3.823-8.533,8.533-8.533h187.73
	c4.71,0,8.533,3.823,8.533,8.533v17.066c0,4.71-3.823,8.533-8.533,8.533h-187.73C157.414,51.199,153.6,47.376,153.6,42.666z
	 M324.264,68.266v170.664H187.733V68.266H324.264z M255.998,455.758l-23.893-131.496h47.786L255.998,455.758z M131.533,307.195
	l51.199-51.199h146.532l51.199,51.199H131.533z"/>
<g>
</g>
<g>
</g>
<g>
</g>
<g>
</g>
<g>
</g>
<g>
</g>
<g>
</g>
<g>
</g>
<g>
</g>
<g>
</g>
<g>
</g>
<g>
</g>
<g>
</g>
<g>
</g>
<g>
</g>
</svg>
