<?xml version="1.0" encoding="iso-8859-1"?>
<!-- Generator: Adobe Illustrator 19.0.0, SVG Export Plug-In . SVG Version: 6.00 Build 0)  -->
<svg version="1.1" id="Capa_1" xmlns="http://www.w3.org/2000/svg" xmlns:xlink="http://www.w3.org/1999/xlink" x="0px" y="0px"
	 viewBox="0 0 480.008 480.008" style="enable-background:new 0 0 480.008 480.008;" xml:space="preserve">
<g>
	<g>
		<path style="fill:#c4c4c4;" d="M381.66,290.344l-61.656-61.656V64h8c13.255,0,24-10.745,24-24V24c0-13.255-10.745-24-24-24h-176
			c-13.255,0-24,10.745-24,24v16c0,13.255,10.745,24,24,24h8v164.688l-61.656,61.656c-3.124,3.125-3.123,8.19,0.002,11.314
			c1.5,1.499,3.534,2.342,5.654,2.342h97.32l30.808,169.432c0.787,4.348,4.95,7.234,9.297,6.447
			c3.283-0.594,5.852-3.164,6.447-6.447L278.684,304h97.32c4.418-0.001,7.999-3.583,7.998-8.002
			C384.002,293.878,383.159,291.844,381.66,290.344z M152.004,48c-4.418,0-8-3.582-8-8V24c0-4.418,3.582-8,8-8h176
			c4.418,0,8,3.582,8,8v16c0,4.418-3.582,8-8,8H152.004z M304.004,64v160h-128V64H304.004z M240.004,427.28L217.604,304h44.8
			L240.004,427.28z M123.316,288l48-48h137.376l48,48H123.316z"/>
	</g>
</g>
<g>
</g>
<g>
</g>
<g>
</g>
<g>
</g>
<g>
</g>
<g>
</g>
<g>
</g>
<g>
</g>
<g>
</g>
<g>
</g>
<g>
</g>
<g>
</g>
<g>
</g>
<g>
</g>
<g>
</g>
</svg>
